<svg viewBox="0 0 160 160" xmlns="http://www.w3.org/2000/svg">
<path d="M70 90 C68 105 72 135 70 150" fill="none" stroke="#3B82F6" stroke-width="3" stroke-linecap="round" opacity="0.5"></path>
<ellipse cx="36.2" cy="60.6" rx="20.9" ry="12.2" fill="#3B82F6" opacity="0.28" transform="rotate(-18 36.2 60.6)"></ellipse><ellipse cx="62.8" cy="45.4" rx="22.8" ry="13.3" fill="#3B82F6" opacity="0.39" transform="rotate(8 62.8 45.4)"></ellipse><ellipse cx="91.3" cy="47.3" rx="22.0" ry="12.9" fill="#3B82F6" opacity="0.50" transform="rotate(-10 91.3 47.3)"></ellipse><ellipse cx="116.0" cy="62.5" rx="19.0" ry="11.4" fill="#3B82F6" opacity="0.28" transform="rotate(20 116.0 62.5)"></ellipse><ellipse cx="51.4" cy="77.7" rx="19.0" ry="11.4" fill="#3B82F6" opacity="0.39" transform="rotate(-6 51.4 77.7)"></ellipse><ellipse cx="83.7" cy="73.9" rx="23.6" ry="13.7" fill="#3B82F6" opacity="0.50" transform="rotate(4 83.7 73.9)"></ellipse><ellipse cx="108.4" cy="79.6" rx="18.2" ry="10.6" fill="#3B82F6" opacity="0.28" transform="rotate(15 108.4 79.6)"></ellipse>
<circle cx="30" cy="120" r="3" fill="#3B82F6" opacity="0.3"></circle><circle cx="130" cy="50" r="2.5" fill="#3B82F6" opacity="0.3"></circle><circle cx="112" cy="30" r="2" fill="#3B82F6" opacity="0.3"></circle>
</svg>